<svg width="600" height="600" viewBox="0 0 600 600" fill="none" xmlns="http://www.w3.org/2000/svg">
<rect width="600" height="600" fill="url(#paint0_linear_10_22)"/>
<path fill-rule="evenodd" clip-rule="evenodd" d="M183.36 91.2105C176.917 93.811 176.824 94.5102 176.824 140.747C176.824 164.333 176.272 186.587 175.598 190.203C172.596 206.284 160.992 221.452 146.398 228.37L138.392 232.164H83.8341H29.2772L26.4918 234.941C23.7247 237.703 23.7052 237.956 23.3539 276.791L23 315.863L30.6461 324.045C34.8504 328.546 44.3496 338.543 51.7529 346.261C59.1562 353.979 74.2323 369.904 85.2542 381.649C96.2774 393.395 116.311 414.534 129.774 428.626C143.237 442.717 159.176 459.466 165.193 465.844C171.209 472.223 183.405 484.993 192.293 494.221L208.454 511H238.837C267.726 511 269.377 510.876 272.433 508.47L275.648 505.942V464.841V423.741L255.212 401.114C243.973 388.67 224.894 367.576 212.815 354.239C174.02 311.403 172.803 309.861 168.308 297.843C159.779 275.044 164.187 250.539 179.64 234.847C185.127 229.275 191.602 225.516 228.066 206.724C251.216 194.795 271.394 183.663 272.903 181.989C275.636 178.958 275.648 178.766 275.648 137.468V95.9904L272.653 92.9958L269.659 90L227.816 90.0769C204.803 90.1196 184.798 90.6297 183.36 91.2105ZM335.255 90.881C326.259 91.8341 326.323 91.5266 325.927 135.871C325.655 166.339 325.935 176.063 327.147 178.342C328.012 179.968 331.999 184.78 336.009 189.036C352.975 207.048 409.98 269.55 417.637 278.535C431.268 294.528 436.708 308.173 436.68 326.302C436.654 343.053 431.66 355.653 420.667 366.708C414.733 372.674 403.274 379.201 347.503 408.38C338.373 413.157 329.863 418.214 328.592 419.619C326.434 422.002 326.257 424.927 325.929 463.544L325.577 504.917L328.619 507.959L331.659 511H376.158H420.657L423.185 507.785C425.637 504.668 425.715 503.219 425.735 460.498C425.758 412.913 426.474 405.584 432.203 394.302C437.269 384.327 444.429 377.299 454.707 372.219L464.02 367.616L516.827 368.037L569.635 368.459L573.318 364.775L577 361.092V323.244V285.395L571.965 279.524C569.195 276.296 557.133 263.431 545.158 250.938C522.238 227.025 517.39 221.893 443.405 143.258C417.906 116.157 395.586 93.0861 393.805 91.9915C391.05 90.2977 386.761 90.0305 365.134 90.205C351.146 90.3185 337.7 90.6223 335.255 90.881Z" fill="black"/>
<defs>
<linearGradient id="paint0_linear_10_22" x1="557.5" y1="-8.76778e-06" x2="29.5" y2="648.5" gradientUnits="userSpaceOnUse">
<stop stop-color="white"/>
<stop offset="0.475962" stop-color="#DBDBDB"/>
<stop offset="1" stop-color="#B9B9B9"/>
</linearGradient>
</defs>
</svg>
